# xmcd
#
# Track frame offsets:
# 150
# 22807
# 43685
# 62730
# 82232
# 96717
# 116382
# 135392
# 147280
# 166657
# 177497
# 194265
# 210897
# 228565
#
# Disc length: 3311 seconds
#
#
# Revision: 2
# Processed by: cddbd v1.4PL0 Copyright (c) Steve Scherf et al.
# Submitted via: FreeRIP 2.52 
#
DISCID=bd0ced0e
DTITLE=日光海岸 - 日光海岸
DYEAR=1900
DGENRE=
TTITLE0=雪之梦
TTITLE1=无垠水平线
TTITLE2=山涧
TTITLE3=钻石
TTITLE4=初雪
TTITLE5=风车
TTITLE6=远走高飞
TTITLE7=紫蝴蝶
TTITLE8=希望之歌
TTITLE9=春水
TTITLE10=木星
TTITLE11=印地安夏雨
TTITLE12=晨光
TTITLE13=款款柔情
EXTD=
EXTT0=
EXTT1=
EXTT2=
EXTT3=
EXTT4=
EXTT5=
EXTT6=
EXTT7=
EXTT8=
EXTT9=
EXTT10=
EXTT11=
EXTT12=
EXTT13=
PLAYORDER=
